<?xml version="1.0" encoding="utf-8"?>
<!-- Generator: Adobe Illustrator 28.3.0, SVG Export Plug-In . SVG Version: 6.00 Build 0)  -->
<svg version="1.1" id="Layer_1" xmlns="http://www.w3.org/2000/svg" xmlns:xlink="http://www.w3.org/1999/xlink" x="0px" y="0px"
	 viewBox="0 0 772 773.1" style="enable-background:new 0 0 772 773.1;" xml:space="preserve">
<style type="text/css">
	.st0{fill:#4E80EE;}
	.st1{fill:#040711;}
</style>
<rect x="533.7" y="376.9" class="st0" width="77.3" height="283"/>
<path class="st1" d="M386,1.5C173.4,1.5,1,173.9,1,386.5s172.4,385,385,385s385-172.4,385-385S598.6,1.5,386,1.5z M386,686.5
	c-165.7,0-300-134.3-300-300s134.3-300,300-300s300,134.3,300,300S551.7,686.5,386,686.5z"/>
<path class="st0" d="M386,161.5c-124.3,0-225,100.7-225,225s100.7,225,225,225s225-100.7,225-225S510.3,161.5,386,161.5z M386,526.5
	c-77.3,0-140-62.7-140-140s62.7-140,140-140s140,62.7,140,140S463.3,526.5,386,526.5z"/>
</svg>
